# xmcd
#
# Track frame offsets:
#	150
#	35523
#	67690
#	117874
#
# Disc length: 2170 seconds
#
# Revision: 1
# Processed by: cddbd v1.5.2PL0 Copyright (c) Steve Scherf et al.
# Submitted via: audiograbber 1.83.01
#
DISCID=29087804
DTITLE=Grateful Dead - 77-10-09 McNichols Sports Arena, Denver CO
DYEAR=1900
DGENRE=
TTITLE0=The Music Never Stopped
TTITLE1=Samson and Delilah
TTITLE2=Scarlet Begonias
TTITLE3=Fire On The Mountain
EXTD=
EXTT0=
EXTT1=
EXTT2=
EXTT3=
PLAYORDER=
